# xmcd
#
# Track frame offsets: 
#        150
#        24580
#        43484
#        59505
#        78686
#        95657
#        114570
#        130170
#        145130
#        164079
#
# Disc length: 2550 seconds
#
# Revision: 1
# Processed by: cddbd v1.5.2PL0 Copyright (c) Steve Scherf et al.
# Submitted via: ExactAudioCopyFreeDBPlugin 1.0
#
DISCID=9609f40a
DTITLE=Wölfe Solo - Die Würfel sind gefallen
DYEAR=2005
DGENRE=RAC
TTITLE0=Die neue Rechte
TTITLE1=Ich liebe es
TTITLE2=Aleae iacta sunt
TTITLE3=Bpjm
TTITLE4=Frei geboren
TTITLE5=Spitzel
TTITLE6=Heilig
TTITLE7=Todgesagte leben länger
TTITLE8=Böse und gemein
TTITLE9=Alles oder nichts
EXTD=
EXTT0=
EXTT1=
EXTT2=
EXTT3=
EXTT4=
EXTT5=
EXTT6=
EXTT7=
EXTT8=
EXTT9=
PLAYORDER=
